<?xml version="1.0" encoding="iso-8859-1"?>
<!-- Generator: Adobe Illustrator 19.0.0, SVG Export Plug-In . SVG Version: 6.00 Build 0)  -->
<svg version="1.1" id="Capa_1" xmlns="http://www.w3.org/2000/svg" xmlns:xlink="http://www.w3.org/1999/xlink" x="0px" y="0px"
	 viewBox="0 0 47.355 47.355" style="enable-background:new 0 0 47.355 47.355;" xml:space="preserve">
<g>
	<path d="M20.217,27.996c-0.553,0-1,0.448-1,1c0,0.552,0.447,1,1,1h4.427c0.553,0,1-0.448,1-1V15.622
		c0-0.379-0.214-0.725-0.553-0.895c-0.338-0.169-0.744-0.132-1.047,0.095l-4.427,3.32c-0.442,0.331-0.532,0.958-0.2,1.4
		c0.33,0.441,0.957,0.531,1.399,0.2l2.827-2.12v10.374H20.217z"/>
	<path d="M29.072,29.996c0.553,0,1-0.448,1-1c0-0.552-0.447-1-1-1h-1.516c-0.553,0-1,0.448-1,1c0,0.552,0.447,1,1,1H29.072z"/>
	<path d="M47.337,16.172L44.859,3.29c-0.07-0.363-0.335-0.659-0.689-0.767c-0.352-0.11-0.738-0.013-1,0.249l-4.51,4.511
		C29.955-0.681,16.396-0.449,7.973,7.974c-3.998,3.998-6.304,9.309-6.492,14.955c-0.018,0.552,0.413,1.015,0.966,1.033
		c0.011,0,0.023,0,0.034,0c0.536,0,0.98-0.426,0.998-0.966c0.173-5.138,2.27-9.971,5.908-13.608c7.882-7.88,20.701-7.878,28.581,0
		c0.375,0.375,1.039,0.375,1.414,0l3.868-3.869l1.844,9.581l-9.581-1.843l1.304-1.304c0.391-0.391,0.391-1.023,0-1.414
		c-0.391-0.391-1.024-0.391-1.414,0l-2.637,2.637c-0.262,0.262-0.358,0.646-0.249,1c0.108,0.354,0.403,0.619,0.768,0.688
		l12.882,2.478c0.325,0.062,0.661-0.04,0.896-0.275C47.296,16.833,47.4,16.497,47.337,16.172z"/>
	<path d="M44.908,23.394c-0.011,0-0.022,0-0.034,0c-0.536,0-0.98,0.426-0.998,0.966c-0.173,5.139-2.271,9.971-5.907,13.608
		c-7.881,7.877-20.7,7.879-28.581,0c-0.375-0.375-1.039-0.375-1.414,0l-3.868,3.869l-1.844-9.581l9.581,1.843l-1.304,1.303
		c-0.391,0.39-0.391,1.023,0,1.414c0.391,0.391,1.024,0.391,1.414,0l2.637-2.636c0.262-0.262,0.357-0.646,0.249-1
		c-0.108-0.354-0.403-0.619-0.767-0.688L1.189,30.013c-0.326-0.063-0.661,0.04-0.896,0.275c-0.234,0.234-0.338,0.57-0.275,0.896
		l2.478,12.882c0.07,0.363,0.335,0.659,0.69,0.767c0.352,0.109,0.738,0.012,1-0.249l4.51-4.511
		c4.229,3.869,9.605,5.803,14.981,5.803c5.688,0,11.375-2.165,15.705-6.495c3.997-3.997,6.303-9.308,6.491-14.955
		C45.892,23.875,45.46,23.412,44.908,23.394z"/>
</g>
<g>
</g>
<g>
</g>
<g>
</g>
<g>
</g>
<g>
</g>
<g>
</g>
<g>
</g>
<g>
</g>
<g>
</g>
<g>
</g>
<g>
</g>
<g>
</g>
<g>
</g>
<g>
</g>
<g>
</g>
</svg>
